<?xml version="1.0" standalone="no"?>
<svg viewBox="0 0 200 200" xmlns="http://www.w3.org/2000/svg">
  <path fill="#FF0066" d="M42.9,-72.1C57.1,-66,71.3,-57.7,80.4,-45.3C89.6,-32.9,93.9,-16.4,88.8,-2.9C83.8,10.6,69.5,21.2,57.3,28.5C45.2,35.9,35.3,39.9,26.1,47.7C16.9,55.5,8.4,67.1,-0.2,67.4C-8.8,67.7,-17.7,56.8,-29.7,50.7C-41.7,44.5,-56.9,43.1,-66.5,35.4C-76.2,27.8,-80.2,13.9,-76.5,2.1C-72.9,-9.6,-61.4,-19.2,-53.5,-29.9C-45.6,-40.6,-41.3,-52.3,-33,-61.8C-24.7,-71.2,-12.3,-78.4,1,-80.1C14.3,-81.9,28.6,-78.1,42.9,-72.1Z" transform="translate(100 100)" />
</svg>
